<svg xmlns="http://www.w3.org/2000/svg" fill="none" viewBox="0 0 430 353">
	<path stroke="#fff" stroke-opacity="5" stroke-width="1.21" d="m354.679 107-20.983 39.976 13.6-3.332-.66 33.268s5.871-3.886 12.917-5.397c7.045-1.511 14.956.093 14.956.093l-7.652-32.313 14.968.801L354.679 107Zm22.251 232.867-21.657-31.809 16.446 6.115 3.877-30.87s6.853 5.067 16.241 8.068c9.388 3.001 19.224 3.269 19.224 3.269l-15.954 29.51 15.955 4.998-34.132 10.719Zm24.523-244.564-17.081-33.289s38.011 42.79 51.103 27.079c7.319-8.783-13.476-27.016-13.476-27.016m0 0 .584 16.779m-.584-16.78 16.794-.485m-22.308 185.685-16.555 7.214m0 0-7.159-16.542m7.159 16.542c8.74-20.522 12.687-35.654 13.774-46.542m0 0c2.138-21.41-6.784-26.408-12.065-23.707-5.51 2.819-7.055 14.021 12.065 23.707Zm0 0c7.46 3.779 18.065 7.327 32.807 10.057m-138.928 47.769c-18.796-2.163-36.141-33.807-21.024-63.042 35.784 29.478 36.516 46.343 21.024 63.042Zm0 0c-4.312-4.523-13.73-18.205-16.907-36.751m-44.237 93.439c23.796 7.75 6.585-20.876 6.585-20.876s33.872 14.049 21.073-9.416c8.069-25.134-22.255-5.802-22.255-5.802s11.148-29.581-10.176-16.906c-21.553-5.393-5.824 20.488-5.824 20.488s-30.155-12.153-19.539 9.364c-7.183 22.887 22.025 3.36 22.025 3.36s-11.29 30.834 8.111 19.788Zm-256.65-28.031c-5.948 13.485 17.766 15.684 17.766 15.684s-19.035 16.682-5.094 23.823c13.94 7.141 16.991-17.728 16.991-17.728s14.623 17.823 21.733 3.635c7.11-14.187-17.348-17.056-17.348-17.056s15.607-14.785 3.53-20.971c-12.077-6.187-14.14 16.978-14.14 16.978s-17.49-17.85-23.438-4.365ZM264.667 52.26c-4.313 3.828 4.568 12.528.253 16.353-2.648 2.347-7-1.055-8.851 1.96-1.765 2.876 2.026 5.103 1.761 8.469-.73 9.249-22.144 3.685-19.413 13.675 3.965 14.51 23.327-7.58 27.463 2.36 2.257 5.427-6.757 11.99-1.673 14.944 7.644 4.442 7.939-14.386 16.525-14.473 5.742-.058 8.199 8.868 13.313 6.264 5.957-3.032-3.403-10.772-1.203-17.083 3.924-11.255 27.956-1.471 27.432-13.386-.525-11.943-22.9-.389-28.633-10.888-2.781-5.093 3.978-13.172-1.533-14.989-5.843-1.926-5.232 10.681-11.093 12.532-5.825 1.839-9.781-9.79-14.348-5.738Zm-41.034 109.789c-6.001 3.111-.139 17.118-6.365 16.455-7.516-.8 4.443-14.205-1.25-19.255-6.098-5.409-17.493 9.846-20.46 2.665-2.924-7.078 14.922-3.464 15.889-10.985 1.093-8.496-20.583-7.32-16.564-14.834 4.081-7.631 13.678 11.942 21.187 7.625 7.23-4.156-3.931-21.115 4.486-20.94 7.439.153-2.533 18.01 5.244 23.198 7.604 5.073 19.37-12.008 22.857-3.591 3.497 8.444-18.822 3.656-19.24 12.712-.33 7.129 15.225 7.986 11.437 13.974-4.031 6.373-10.513-10.502-17.221-7.024Zm-67.367 20.99c-7.229 3.302 4.842 13.677.371 20.271-4.89 7.212-19.226-3.576-20.615 6.121-1.211 8.463 15.052 3.524 17.828 11.518 2.82 8.122-14.584 15.532-7.83 20.792 9.084 7.075 9.956-18.188 20.084-17.059 8.399.936 6.339 19.539 15.472 14.994 7.925-3.943-10.464-14.709-5.245-21.881 3.61-4.959 14.858.105 14.474-5.975-.419-6.627-10.809-.415-13.626-5.401-3.659-6.475 13.612-12.821 7.91-17.572-5.701-4.751-8.434 11.672-15.857 10.95-8.268-.804-5.352-20.236-12.966-16.758Zm-61.241 72.732.534 20.408-21.408 6.326 18.047 9.496-7.055 22.779 20.141-17.014 15.737 15.215-5.467-22.067 14.564-5.9-13.797-5.544 7.847-17.626-15.922 10.898-13.22-16.971Zm67.533-217.733 24.493-1.728C183.374 26.43 175.813 1.94 174.99-17m-30.594 54.068 36.528 27.216 27.216-37.459L171.806.704l-27.41 36.364Zm-12.786 57.12-5.946-31.475-6.153 7.384m12.099 24.091 14.397 11.997M131.61 94.188l-6.374-.034m20.771 12.031 7.921-9.506m-7.921 9.506-7.995 9.595m-20.601-43.163-17.832 21.4 25.657.137m-7.825-21.537 7.825 21.537m-7.825-21.537 2.1-2.52m0 0-5.302-14.158m-46.033 96.128c-2.714 11.214 10.06 30.813 19.288 24.026 4.738-3.485 2.089-9.268 5.448-14.077 3.41-4.882 8.982-4.609 11.52-10.017 5.849-12.465-32.995-13.406-36.256.068Zm-25.152-7.539c1.509-3.655 4.971-4.356 8.817-3.528 5.226 1.125 10.694 5.466 10.109 9.999-.586 4.533-6.256 5.831-11.82 3.899-5.565-1.932-8.615-6.715-7.106-10.37Zm27.387-5.318c-3.254 2.244-6.583.976-9.415-1.775-3.849-3.736-6.171-10.289-3.231-13.76 2.94-3.471 8.473-1.52 12.175 3.073s3.726 10.219.471 12.462Zm-6.109 28.299c.62 2.649-1.004 4.407-3.444 5.457-3.316 1.426-8.04 1.14-9.515-1.638-1.475-2.778 1.125-5.742 4.947-6.848 3.822-1.106 7.393.381 8.012 3.029Zm19.038-46.773c2.98-.329 4.761 1.682 5.684 4.495 1.254 3.822.483 8.962-2.721 10.212-3.205 1.25-6.222-1.99-7.074-6.325-.851-4.335 1.131-8.052 4.11-8.382ZM4.577 235.885l-3.127 6.069-8.983-4.402 10.822-23.461m1.288 21.794 22.253 13.319 9.885-17.159m-32.138 3.84 8.682-16.852m8.683-16.852 2.541-4.933-10.71-5.743L3.29 214.091m18.652-11.91 24.66 12.706-9.886 17.158m-14.774-29.864-8.682 16.852m-9.97-4.942 9.97 4.942m-9.97-4.942c-7.036-4.032-17.82-5.213-17.424 1.961.457 8.257 13.827 5.836 17.424-1.961Zm0 0c-7.169-4.108-12.633-13.669-6.52-16.42 7.061-3.178 9.94 9.005 6.52 16.42Zm9.97 4.942 23.456 13.012"/>
</svg>
