<svg width="1227" height="513" viewBox="0 0 1227 513" fill="none" xmlns="http://www.w3.org/2000/svg">
    <path d="M0 472.144C0 486.445 0 493.595 2.78318 499.057C5.23134 503.862 9.13774 507.769 13.9425 510.217C19.4048 513 26.5554 513 40.8565 513H1171.41C1196.56 513 1209.14 513 1216 507.767C1221.97 503.21 1225.63 496.252 1226.01 488.747C1226.45 480.131 1219.33 469.763 1205.1 449.027L966.339 101.077C962.348 95.2609 960.353 92.3527 957.777 90.1575C955.496 88.2126 952.889 86.6847 950.078 85.6437C946.904 84.4689 943.392 84.1482 936.367 83.5067L44.5719 2.07019C29.1132 0.658508 21.3838 -0.0473022 15.4154 2.52896C10.1722 4.79221 5.83903 8.74774 3.10834 13.7634C0 19.4727 0 27.2343 0 42.7574V472.144Z" fill="#D6B0E4"/>
</svg>
